<?xml version="1.0" encoding="UTF-8" standalone="no"?>
<!--part of the matt icon theme by sixsixfive released under CC0 (https://creativecommons.org/publicdomain/zero/1.0/) on openclipart-->
<svg xmlns="http://www.w3.org/2000/svg" xmlns:xlink="http://www.w3.org/1999/xlink" viewBox="0 0 128 128">
 <defs id="0">
  <linearGradient id="B">
   <stop id="T" stop-color="#006066"/>
   <stop id="U" offset="0.5" stop-color="#00c4cc" stop-opacity="0.661"/>
   <stop id="V" offset="0.75" stop-color="#00c4cc" stop-opacity="0.767"/>
   <stop id="W" offset="1" stop-color="#a8dde0"/>
  </linearGradient>
  <linearGradient id="C">
   <stop id="X" stop-color="#323232"/>
   <stop id="Y" offset="1" stop-color="#121212"/>
  </linearGradient>
  <linearGradient id="D">
   <stop id="Z"/>
   <stop id="a" offset="1" stop-opacity="0"/>
  </linearGradient>
  <linearGradient id="E">
   <stop id="b" stop-color="#bbb"/>
   <stop id="c" offset="1" stop-color="#888"/>
  </linearGradient>
  <linearGradient id="F">
   <stop id="d" stop-color="#fff"/>
   <stop id="e" offset="1" stop-color="#fff" stop-opacity="0"/>
  </linearGradient>
  <linearGradient y1="20.16" x2="0" y2="99.84" id="G" xlink:href="#C" gradientUnits="userSpaceOnUse"/>
  <linearGradient y1="13.764" x2="0" y2="113.23" id="H" xlink:href="#E" gradientUnits="userSpaceOnUse"/>
  <radialGradient cx="62.27" cy="-11.583" r="58.8" id="I" xlink:href="#F" gradientUnits="userSpaceOnUse" gradientTransform="matrix(1.5662421,-0.00622244,0.0033489,0.84294616,-33.49716,10.338585)"/>
  <radialGradient cx="66.67" cy="121.15" r="63.69" id="J" xlink:href="#D" gradientUnits="userSpaceOnUse" gradientTransform="matrix(1,0,0,0.07009346,0,112.66261)"/>
  <linearGradient id="K">
   <stop id="f" stop-color="#323232"/>
   <stop id="g" offset="1" stop-color="#555"/>
  </linearGradient>
  <linearGradient id="L">
   <stop id="h" stop-color="#eee" stop-opacity="0.308"/>
   <stop id="i" offset="1" stop-color="#eee" stop-opacity="0"/>
  </linearGradient>
  <linearGradient y1="114.03" x2="0" y2="9.531" id="M" xlink:href="#K" gradientUnits="userSpaceOnUse"/>
  <radialGradient cx="65.21" cy="-5.131" r="50.703" id="N" xlink:href="#L" gradientUnits="userSpaceOnUse" gradientTransform="matrix(1.348279,0,0,1.0502311,-24.469781,-3.1033417)"/>
  <linearGradient x1="25.769" x2="99.32" id="O" xlink:href="#B" gradientUnits="userSpaceOnUse" gradientTransform="matrix(1.2926092,0,0,1.2926092,-16.849539,-24.642208)"/>
  <radialGradient cx="63.999" cy="22.912" r="47.54" id="P" xlink:href="#F" gradientUnits="userSpaceOnUse" gradientTransform="matrix(1,-1.9214476e-8,1.901686e-8,0.98971529,-4.3571488e-7,9.4583051)"/>
 </defs>
 <path d="m 130.35714,121.15476 a 63.690475,4.4642859 0 1 1 -127.3809513,0 63.690475,4.4642859 0 1 1 127.3809513,0 z" transform="matrix(1.221777,0,0,1,-17.451797,-5.1835166)" id="1" opacity="0.2" fill="url(#J)"/>
 <path d="m 9.15625,11.46875 c -3.4935055,0 -6.4375,2.888738 -6.4375,6.40625 l 0,91.25 c 0,3.51751 2.9439955,6.40625 6.4375,6.40625 l 109.6875,0 c 3.49351,0 6.4375,-2.88874 6.4375,-6.40625 l 0,-91.25 c 0,-3.517506 -2.94399,-6.40625 -6.4375,-6.40625 l -109.6875,0 z" id="2" fill="#555"/>
 <rect width="117.91" height="99.47" x="5.04" y="13.764" id="3" fill="url(#H)" rx="4.1"/>
 <rect width="105.88" height="79.68" x="10.658" y="19.757" id="4"/>
 <rect width="105.88" height="79.68" x="11.358" y="20.457" id="5" fill="#ddd"/>
 <rect width="105.88" height="79.68" x="11.06" y="20.16" id="6" fill="url(#G)"/>
 <path d="M 9.15625,15.21875 C 7.6810629,15.21875 6.5,16.399813 6.5,17.875 l 0,91.25 c 0,1.47519 1.1676395,2.625 2.65625,2.625 l 109.6875,0 c 1.48861,0 2.65625,-1.14981 2.65625,-2.625 l 0,-91.25 c 0,-1.475187 -1.18106,-2.65625 -2.65625,-2.65625 l -109.6875,0 z" id="7" fill="none" stroke="url(#I)" stroke-width="2.6"/>
 <g transform="matrix(0.1014181,0,0,0.1014181,57.550443,100.35598)" id="8">
  <path d="m 108.21875,7.28125 -50.9375,64.28125 33.28125,44.53125 26.84375,0 -41.25,-56.0625 L 116.46875,9 l 1.4375,-1.65625 -5,-0.0625 -4.6875,0 z m -98.9375,0.25 0,0.03125 L 50.71875,63.5 9.4375,116.1875 18.84375,116.28125 69.3125,52.75 36.09375,7.59375 9.28125,7.53125 z" id="Q" fill="#1a1a1a"/>
  <path d="M 109.34375,9.53125 60.125,71.625 l 31.5625,42.21875 21.25,0 L 74.34375,61.375 a 2.2551453,2.2551453 0 0 1 0.03125,-2.75 l 38.78125,-49.09375 -0.25,0 -0.0312,0 -3.53125,0 z m -95.59375,0.25 38.78125,52.375 a 2.2551453,2.2551453 0 0 1 -0.03125,2.75 l -38.4375,49.0625 3.71875,0.0625 48.6875,-61.3125 L 34.9375,9.84375 13.75,9.78125 z" id="R" fill="url(#M)"/>
  <path d="M 109.34375,9.53125 60.125,71.625 l 31.5625,42.21875 21.25,0 L 74.34375,61.375 a 2.2551453,2.2551453 0 0 1 0.03125,-2.75 l 38.78125,-49.09375 -0.25,0 -0.0312,0 -3.53125,0 z m -95.59375,0.25 38.78125,52.375 a 2.2551453,2.2551453 0 0 1 -0.03125,2.75 l -38.4375,49.0625 3.71875,0.0625 48.6875,-61.3125 L 34.9375,9.84375 13.75,9.78125 z" id="S" fill="none" stroke="url(#N)" stroke-linecap="square" stroke-width="2"/>
 </g>
 <path d="m 59.069131,24.279964 c -1.30697,6e-4 -2.73675,3.02674 -3.045,4.29688 l -8.49448,34.77915 c -0.44184,-0.22491 -0.92987,-0.40157 -1.43852,-0.48254 -2.52669,-0.4022 -5.32589,-1.44696 -7.01955,-2.56746 -0.4986,-0.32985 -0.85614,-0.64914 -1.12896,-0.92867 -0.003,-0.94352 -0.1794,-1.90485 -0.58269,-2.81329 -0.4708,-1.05522 -1.61125,-1.77369 -2.76634,-1.74274 -1.15509,0.0309 -2.25542,0.80949 -2.66906,1.88843 -0.44557,1.16776 -0.41009,2.43171 -0.10922,3.56894 -0.0247,0.028 -0.0177,0.0324 -0.0455,0.0637 -0.51946,0.59897 0.4233,3.17668 -1.18273,3.6961 -1.60601,0.5194 -3.01711,1.84624 -4.65634,2.48517 -2.07267,1.97543 -10.3577,2.23169 -9.39393,2.09954 2.43071,1.57684 10.6825,0.0944 13.6033,-0.74228 1.94535,-0.62916 3.80087,-1.54067 5.31703,-2.94986 0.12655,0.0886 0.23461,0.19649 0.36418,0.28225 2.55142,1.68796 5.74242,2.82751 8.93151,3.38687 0.0406,0.0613 0.0468,0.0553 0.14565,0.24582 0.33302,0.64155 0.72718,2.11049 2.48552,3.27763 0.78283,0.52102 1.82227,0.63365 2.69851,0.29238 0.87627,-0.34124 1.56574,-1.12722 1.79001,-2.04044 l 6.50059,-26.60337 8.03018,47.06113 c 0.23205,1.40048 0.859393,4.93732 2.277799,4.8798 1.418406,-0.0575 2.509368,-4.4466 2.627241,-5.86125 0.462134,-5.30098 0.922923,-9.91983 1.276917,-14.53261 0.292375,-3.8102 1.055842,-6.90666 3.031776,-9.38672 1.962543,0.95402 4.356015,1.58696 7.101504,1.047 0.914043,-0.17872 1.72553,-0.81888 2.112266,-1.66611 l 2.567458,-5.60836 c 1.261315,-0.6444 2.216876,-0.59522 3.987764,0.71926 1.26019,1.94199 1.891617,1.93325 2.949863,7.72968 0.253817,1.39967 1.648193,2.49612 3.068215,2.41271 2.073099,-0.12078 3.882246,-1.03431 5.134926,-2.15776 0.69897,-0.62688 1.24035,-1.28901 1.72076,-1.94837 0.53036,0.0941 0.97822,0.2067 1.2291,0.32777 0.0867,0.042 0.13078,0.034 0.17296,0.0364 -0.003,0.0133 -0.009,0.009 -0.009,0.0273 -0.0562,0.76877 0.20448,1.5559 0.70852,2.13915 0.50393,0.58328 1.24492,0.95545 2.01369,1.01149 0.76879,0.056 1.55587,-0.20471 2.13903,-0.70887 0.58321,-0.50403 0.95528,-1.24507 1.01116,-2.01384 0.18805,-2.59634 -1.66562,-4.91966 -3.46882,-5.79045 -1.80317,-0.87083 -3.60166,-1.02702 -5.12583,-1.08344 -1.02076,-0.0397 -2.04489,0.49564 -2.59478,1.35657 -0.397287,0.62202 -0.758131,1.11841 -1.101616,1.54776 -1.159354,-3.94155 -2.460598,-5.19794 -3.159279,-6.43686 -0.190932,-0.33734 -0.449505,-0.63629 -0.755673,-0.87405 -3.761195,-2.94489 -8.40152,-2.97149 -11.726576,-0.93778 -0.494797,0.30317 -0.896411,0.75618 -1.138077,1.28375 l -2.276143,4.97107 c -1.213812,-0.0584 -2.122477,-0.59921 -3.414168,-1.50223 -1.06904,-0.74588 -2.643296,-0.65887 -3.623585,0.20026 -2.327872,2.04257 -4.030756,7.08396 -5.011575,9.68079 l -6.350887,-40.91832 c -0.23046,-1.35409 -1.33551,-4.4944 -2.70903,-4.49717 z" id="9" color="#000" stroke-width="20.2" fill="url(#O)"/>
 <path d="m 59.069131,24.279964 c -1.30697,6e-4 -2.73675,3.02674 -3.045,4.29688 l -8.49448,34.77915 c -0.44184,-0.22491 -0.92987,-0.40157 -1.43852,-0.48254 -2.52669,-0.4022 -5.32589,-1.44696 -7.01955,-2.56746 -0.4986,-0.32985 -0.85614,-0.64914 -1.12896,-0.92867 -0.003,-0.94352 -0.1794,-1.90485 -0.58269,-2.81329 -0.4708,-1.05522 -1.61125,-1.77369 -2.76634,-1.74274 -1.15509,0.0309 -2.25542,0.80949 -2.66906,1.88843 -0.44557,1.16776 -0.41009,2.43171 -0.10922,3.56894 -0.0247,0.028 -0.0177,0.0324 -0.0455,0.0637 -0.51946,0.59897 0.4233,3.17668 -1.18273,3.6961 -1.60601,0.5194 -3.01711,1.84624 -4.65634,2.48517 -2.07267,1.97543 -10.3577,2.23169 -9.39393,2.09954 2.43071,1.57684 10.6825,0.0944 13.6033,-0.74228 1.94535,-0.62916 3.80087,-1.54067 5.31703,-2.94986 0.12655,0.0886 0.23461,0.19649 0.36418,0.28225 2.55142,1.68796 5.74242,2.82751 8.93151,3.38687 0.0406,0.0613 0.0468,0.0553 0.14565,0.24582 0.33302,0.64155 0.72718,2.11049 2.48552,3.27763 0.78283,0.52102 1.82227,0.63365 2.69851,0.29238 0.87627,-0.34124 1.56574,-1.12722 1.79001,-2.04044 l 6.50059,-26.60337 8.03018,47.06113 c 0.23205,1.40048 0.859393,4.93732 2.277799,4.8798 1.418406,-0.0575 2.509368,-4.4466 2.627241,-5.86125 0.462134,-5.30098 0.922923,-9.91983 1.276917,-14.53261 0.292375,-3.8102 1.055842,-6.90666 3.031776,-9.38672 1.962543,0.95402 4.356015,1.58696 7.101504,1.047 0.914043,-0.17872 1.72553,-0.81888 2.112266,-1.66611 l 2.567458,-5.60836 c 1.261315,-0.6444 2.216876,-0.59522 3.987764,0.71926 1.26019,1.94199 1.891617,1.93325 2.949863,7.72968 0.253817,1.39967 1.648193,2.49612 3.068215,2.41271 2.073099,-0.12078 3.882246,-1.03431 5.134926,-2.15776 0.69897,-0.62688 1.24035,-1.28901 1.72076,-1.94837 0.53036,0.0941 0.97822,0.2067 1.2291,0.32777 0.0867,0.042 0.13078,0.034 0.17296,0.0364 -0.003,0.0133 -0.009,0.009 -0.009,0.0273 -0.0562,0.76877 0.20448,1.5559 0.70852,2.13915 0.50393,0.58328 1.24492,0.95545 2.01369,1.01149 0.76879,0.056 1.55587,-0.20471 2.13903,-0.70887 0.58321,-0.50403 0.95528,-1.24507 1.01116,-2.01384 0.18805,-2.59634 -1.66562,-4.91966 -3.46882,-5.79045 -1.80317,-0.87083 -3.60166,-1.02702 -5.12583,-1.08344 -1.02076,-0.0397 -2.04489,0.49564 -2.59478,1.35657 -0.397287,0.62202 -0.758131,1.11841 -1.101616,1.54776 -1.159354,-3.94155 -2.460598,-5.19794 -3.159279,-6.43686 -0.190932,-0.33734 -0.449505,-0.63629 -0.755673,-0.87405 -3.761195,-2.94489 -8.40152,-2.97149 -11.726576,-0.93778 -0.494797,0.30317 -0.896411,0.75618 -1.138077,1.28375 l -2.276143,4.97107 c -1.213812,-0.0584 -2.122477,-0.59921 -3.414168,-1.50223 -1.06904,-0.74588 -2.643296,-0.65887 -3.623585,0.20026 -2.327872,2.04257 -4.030756,7.08396 -5.011575,9.68079 l -6.350887,-40.91832 c -0.23046,-1.35409 -1.33551,-4.4944 -2.70903,-4.49717 z" id="A" opacity="0.344" color="#000" stroke-width="20.2" fill="url(#P)"/>
</svg>
